<svg height="230" viewBox="0 0 230 230" width="230" xmlns="http://www.w3.org/2000/svg" xmlns:xlink="http://www.w3.org/1999/xlink"><clipPath id="a"><path d="m0 0h230v230h-230z"/></clipPath><clipPath id="b"><path d="m6 29h218v172h-218z"/></clipPath><g clip-path="url(#a)"><g clip-path="url(#b)"><g fill="#fff"><path d="m114.965 146.52c.276-7.646-4.174-12.371-11.29-11.991-12.221.655-25.458 15.649-24.535 27.792.607 7.972 6.868 12.489 14.607 10.538 10.654-2.687 20.82-15.307 21.218-26.339zm-45.384 17.372c-.005-18.468 19.215-38.841 37.602-39.857 10.134-.56 16.465 4.967 17.267 15.074 1.424 17.947-15.272 40.359-32.791 44.017-12.882 2.689-22.074-5.319-22.078-19.234z"/><path d="m21.527 88.492-.107 11.008 5.05.333c3.362.223 5.174-1.181 5.477-4.277.398-4.074-3.727-6.638-10.42-7.064zm5.059 22.002c-.676 0-2.624-.02-3.682.082-.519.05-1.635.318-1.635.318 0 2.777.059 2.906.085 5.025l.066 5.372s9.031 1.497 10.773-.888c1.996-2.731.323-8.05-2.583-9.528m-17.697-31.246c8.14 0 13.474-1.105 19.797 1.642 9.3 4.04 10.907 13.064 6.906 22.354-.295.684-2.172 2.129-2.172 2.129s2.31 2.041 3.047 2.746c4.263 4.077 4.59 10.687 1.967 16.107-3.064 6.334-8.43 7.678-15.646 7.473-9.431-.268-14.557-2.768-14.557-2.768v-14.826c0-11.491.468-12.558.486-24.049.002-1.605.079-8.714.172-10.808z"/><path d="m43.222 165.427c9.335-.343 9.058-2.32 9.71-5.76.21-1.107.708-4.625-.625-5.833-2.204-1.998-3.672-1.584-9.085-1.474zm-.093 20.595c4.536.246 8.755.354 10.605-4.144.69-1.677 1.313-6.44-.375-7.596-2.701-1.851-5.062-1.008-10.23-1.008zm15.511-17.605c4.667 2.542 7.015 11.322 3.088 18.225-6.537 11.491-17.49 9.376-28.232 9.127v-52.379c6.473 0 13.155-.797 19.606.171 5.705.856 10.936 7.856 9.451 16.768-.352 2.114-.663 6.265-3.913 8.088z"/><path d="m219.988 48.125-7.806 2.709s-2.112-2.086-3.668-3.875c-4.731-5.438-11.598-6.419-17.316-3.513-6.965 3.54-10.807 9.375-10.838 17.236-.028 7.12 3.847 11.949 10.27 14.569 8.04 3.281 15.652 2.278 22.842-3.364 2.418 2.644 4.664 5.101 7.449 8.147-2.218 1.737-4.577 3.354-7.317 4.273-9.834 3.298-19.733 3.148-29.287-1.021-8.994-3.926-13.506-11.117-13.536-20.906-.028-9.145 3.45-16.96 10.158-23.112 12.712-11.658 30.51-7.626 39.049 8.857z"/><path d="m73.971 106.556c-1.537-2.687-2.84-4.966-4.593-8.033-1.591 3.971-2.775 6.928-4.296 10.725 3.49-1.057 5.944-1.8 8.889-2.692zm-4.79-29.933c8.769 14.501 17.103 28.283 25.77 42.616-3.454 1.485-6.706 2.883-10.275 4.417-2.071-3.319-3.984-6.383-5.927-9.497-5.598 1.609-11.114 2.286-16.219 4.505-.541.235-2.265 1.003-2.265 1.003s-1.527 4.127-2.327 5.908c-1.605 3.571-2.84 6.8-2.84 6.8l-10.4.62c8.111-18.674 16.144-37.172 24.483-56.372z"/><path d="m174.632 131.923c2.468 5.515 6.266 7.049 10.436 4.947 1.941-.979 4.359-3.889 3.989-5.959-.667-3.745-1.876-4.203-4.325-4.984-1.597-.51-3.519-.752-5.316-1.078-7.867-1.424-12.337-8.083-10.387-15.833 1.817-7.217 6.327-12.101 13.716-13.611 5.751-1.176 10.769.872 13.866 5.838l.862 1.382c-2.641 1.357-8.792 4.125-8.792 4.125s-.972-.822-2.333-1.667c-2.885-1.791-6.815.343-7.886 3.976-1.146 3.888 1.383 5.394 4.731 6.035 1.306.25 2.605.541 3.901.839 9.924 2.283 14.934 13.376 10.107 22.369-4.299 8.007-17.205 11.922-24.825 6.977-2.527-1.64-4.195-4.696-5.773-7.707 2.538-1.786 4.822-3.393 8.029-5.649z"/><path d="m144.293 127.495c2.607-6.508 5.319-11.745 6.776-17.31.748-2.857 2.446-6.779 2.446-6.779s6.961-2.338 10.911-2.908c-1.311 3.341-2.403 6.218-3.567 9.066-2.515 6.153-4.86 12.387-7.661 18.407-3.088 6.636-4.329 13.428-4.027 20.753.475 5.058.375 9.338.375 9.338s-4.08.963-9.525 2.34c-.662-10.371 2.044-18.862-3.083-26.091-4.601-6.488-8.572-10.512-13.025-17.875 3.575-1.692 6.916-3.273 10.627-5.029 3.189 5.261 6.174 10.184 9.753 16.088z"/><path d="m135.5 99.898v-41.018c-3.407 1.339-6.218 2.442-9.043 3.551l-.822-9.306s2.708-1.078 6.003-2.487c7.593-3.246 15.261-6.315 23.046-9.522l.746 8.625-6.634 3.103c-3.936 1.841-3.768 1.863-3.768 1.863s-.029.129.034 3.734c.282 16.31.069 20.973.069 31.46 0 3.391-.283 7.349-.283 7.349z"/><path d="m106.466 104.407c6.269-2.845 11.352-5.152 16.471-7.475.976 9.381.976 9.229.976 9.229s-2.26 1.139-5.9 2.818c-6.73 3.103-13.454 6.217-20.955 9.685v-26.271c0-5.992 0-11.985 0-17.977 0-4.432 0-8.874 0-8.874s4.665-1.683 9.408-3.33z"/><path d="m158.075 91.517c0-16.344-.454-32.525-.076-48.808.031-1.357 0-2.896 0-2.896l9.651-2.565v11.582 32.463 7.895z"/></g><path d="m73.971 106.556c-2.945.892-5.399 1.635-8.889 2.692 1.521-3.797 2.705-6.754 4.296-10.725 1.753 3.067 3.056 5.346 4.593 8.033z" fill="none"/></g></g></svg>